STARTFONT 2.1
COMMENT Exported by Fony v1.4.7
FONT 9x18 Fonf Font
SIZE 18 96 96
FONTBOUNDINGBOX 9 17 0 -9
STARTPROPERTIES 6
COPYRIGHT "Created with Fony 1.4.7"
RESOLUTION_X 96
RESOLUTION_Y 96
FONT_ASCENT 9
FONT_DESCENT 9
DEFAULT_CHAR 0
ENDPROPERTIES
CHARS 256
STARTCHAR 000
ENCODING 0
SWIDTH 648 0
DWIDTH 9 0
BBX 0 0 0 0
BITMAP
ENDCHAR
STARTCHAR 001
ENCODING 1
SWIDTH 648 0
DWIDTH 9 0
BBX 0 0 0 0
BITMAP
ENDCHAR
STARTCHAR 002
ENCODING 2
SWIDTH 648 0
DWIDTH 9 0
BBX 0 0 0 0
BITMAP
ENDCHAR
STARTCHAR 003
ENCODING 3
SWIDTH 648 0
DWIDTH 9 0
BBX 0 0 0 0
BITMAP
ENDCHAR
STARTCHAR 004
ENCODING 4
SWIDTH 648 0
DWIDTH 9 0
BBX 0 0 0 0
BITMAP
ENDCHAR
STARTCHAR 005
ENCODING 5
SWIDTH 648 0
DWIDTH 9 0
BBX 0 0 0 0
BITMAP
ENDCHAR
STARTCHAR 006
ENCODING 6
SWIDTH 648 0
DWIDTH 9 0
BBX 0 0 0 0
BITMAP
ENDCHAR
STARTCHAR 007
ENCODING 7
SWIDTH 648 0
DWIDTH 9 0
BBX 0 0 0 0
BITMAP
ENDCHAR
STARTCHAR 008
ENCODING 8
SWIDTH 648 0
DWIDTH 9 0
BBX 0 0 0 0
BITMAP
ENDCHAR
STARTCHAR 009
ENCODING 9
SWIDTH 648 0
DWIDTH 9 0
BBX 0 0 0 0
BITMAP
ENDCHAR
STARTCHAR 010
ENCODING 10
SWIDTH 648 0
DWIDTH 9 0
BBX 0 0 0 0
BITMAP
ENDCHAR
STARTCHAR 011
ENCODING 11
SWIDTH 648 0
DWIDTH 9 0
BBX 0 0 0 0
BITMAP
ENDCHAR
STARTCHAR 012
ENCODING 12
SWIDTH 648 0
DWIDTH 9 0
BBX 0 0 0 0
BITMAP
ENDCHAR
STARTCHAR 013
ENCODING 13
SWIDTH 648 0
DWIDTH 9 0
BBX 0 0 0 0
BITMAP
ENDCHAR
STARTCHAR 014
ENCODING 14
SWIDTH 648 0
DWIDTH 9 0
BBX 0 0 0 0
BITMAP
ENDCHAR
STARTCHAR 015
ENCODING 15
SWIDTH 648 0
DWIDTH 9 0
BBX 0 0 0 0
BITMAP
ENDCHAR
STARTCHAR 016
ENCODING 16
SWIDTH 648 0
DWIDTH 9 0
BBX 0 0 0 0
BITMAP
ENDCHAR
STARTCHAR 017
ENCODING 17
SWIDTH 648 0
DWIDTH 9 0
BBX 0 0 0 0
BITMAP
ENDCHAR
STARTCHAR 018
ENCODING 18
SWIDTH 648 0
DWIDTH 9 0
BBX 0 0 0 0
BITMAP
ENDCHAR
STARTCHAR 019
ENCODING 19
SWIDTH 648 0
DWIDTH 9 0
BBX 0 0 0 0
BITMAP
ENDCHAR
STARTCHAR 020
ENCODING 20
SWIDTH 648 0
DWIDTH 9 0
BBX 0 0 0 0
BITMAP
ENDCHAR
STARTCHAR 021
ENCODING 21
SWIDTH 648 0
DWIDTH 9 0
BBX 0 0 0 0
BITMAP
ENDCHAR
STARTCHAR 022
ENCODING 22
SWIDTH 648 0
DWIDTH 9 0
BBX 0 0 0 0
BITMAP
ENDCHAR
STARTCHAR 023
ENCODING 23
SWIDTH 648 0
DWIDTH 9 0
BBX 0 0 0 0
BITMAP
ENDCHAR
STARTCHAR 024
ENCODING 24
SWIDTH 648 0
DWIDTH 9 0
BBX 0 0 0 0
BITMAP
ENDCHAR
STARTCHAR 025
ENCODING 25
SWIDTH 648 0
DWIDTH 9 0
BBX 0 0 0 0
BITMAP
ENDCHAR
STARTCHAR 026
ENCODING 26
SWIDTH 648 0
DWIDTH 9 0
BBX 0 0 0 0
BITMAP
ENDCHAR
STARTCHAR 027
ENCODING 27
SWIDTH 648 0
DWIDTH 9 0
BBX 0 0 0 0
BITMAP
ENDCHAR
STARTCHAR 028
ENCODING 28
SWIDTH 648 0
DWIDTH 9 0
BBX 0 0 0 0
BITMAP
ENDCHAR
STARTCHAR 029
ENCODING 29
SWIDTH 648 0
DWIDTH 9 0
BBX 0 0 0 0
BITMAP
ENDCHAR
STARTCHAR 030
ENCODING 30
SWIDTH 648 0
DWIDTH 9 0
BBX 0 0 0 0
BITMAP
ENDCHAR
STARTCHAR 031
ENCODING 31
SWIDTH 648 0
DWIDTH 9 0
BBX 0 0 0 0
BITMAP
ENDCHAR
STARTCHAR 032
ENCODING 32
SWIDTH 648 0
DWIDTH 9 0
BBX 0 0 0 0
BITMAP
ENDCHAR
STARTCHAR 033
ENCODING 33
SWIDTH 648 0
DWIDTH 9 0
BBX 2 10 4 -5
BITMAP
C0
C0
C0
C0
80
80
80
00
80
80
ENDCHAR
STARTCHAR 034
ENCODING 34
SWIDTH 648 0
DWIDTH 9 0
BBX 4 3 3 2
BITMAP
90
90
90
ENDCHAR
STARTCHAR 035
ENCODING 35
SWIDTH 648 0
DWIDTH 9 0
BBX 8 11 1 -5
BITMAP
12
12
12
7F
24
24
24
FE
48
48
48
ENDCHAR
STARTCHAR 036
ENCODING 36
SWIDTH 648 0
DWIDTH 9 0
BBX 8 14 1 -7
BITMAP
10
10
7E
91
90
90
78
16
11
11
91
7E
10
10
ENDCHAR
STARTCHAR 037
ENCODING 37
SWIDTH 648 0
DWIDTH 9 0
BBX 8 10 1 -5
BITMAP
60
91
92
64
08
10
26
49
89
06
ENDCHAR
STARTCHAR 038
ENCODING 38
SWIDTH 648 0
DWIDTH 9 0
BBX 8 10 1 -5
BITMAP
38
44
40
20
60
90
88
85
42
3D
ENDCHAR
STARTCHAR 039
ENCODING 39
SWIDTH 648 0
DWIDTH 9 0
BBX 1 3 5 2
BITMAP
80
80
80
ENDCHAR
STARTCHAR 040
ENCODING 40
SWIDTH 648 0
DWIDTH 9 0
BBX 3 10 4 -5
BITMAP
20
40
40
80
80
80
80
40
40
20
ENDCHAR
STARTCHAR 041
ENCODING 41
SWIDTH 648 0
DWIDTH 9 0
BBX 3 10 2 -5
BITMAP
80
40
40
20
20
20
20
40
40
80
ENDCHAR
STARTCHAR 042
ENCODING 42
SWIDTH 648 0
DWIDTH 9 0
BBX 7 7 2 -4
BITMAP
10
92
54
38
54
92
10
ENDCHAR
STARTCHAR 043
ENCODING 43
SWIDTH 648 0
DWIDTH 9 0
BBX 7 7 2 -4
BITMAP
10
10
10
FE
10
10
10
ENDCHAR
STARTCHAR 044
ENCODING 44
SWIDTH 648 0
DWIDTH 9 0
BBX 3 3 3 -7
BITMAP
60
60
C0
ENDCHAR
STARTCHAR 045
ENCODING 45
SWIDTH 648 0
DWIDTH 9 0
BBX 7 1 2 -1
BITMAP
FE
ENDCHAR
STARTCHAR 046
ENCODING 46
SWIDTH 648 0
DWIDTH 9 0
BBX 2 2 4 -6
BITMAP
C0
C0
ENDCHAR
STARTCHAR 047
ENCODING 47
SWIDTH 648 0
DWIDTH 9 0
BBX 5 10 2 -5
BITMAP
08
08
10
10
20
20
40
40
80
80
ENDCHAR
STARTCHAR 048
ENCODING 48
SWIDTH 648 0
DWIDTH 9 0
BBX 8 10 1 -5
BITMAP
3C
42
83
85
89
91
A1
C1
42
3C
ENDCHAR
STARTCHAR 049
ENCODING 49
SWIDTH 648 0
DWIDTH 9 0
BBX 5 10 3 -5
BITMAP
20
60
A0
20
20
20
20
20
20
F8
ENDCHAR
STARTCHAR 050
ENCODING 50
SWIDTH 648 0
DWIDTH 9 0
BBX 8 10 1 -5
BITMAP
3C
42
81
01
02
0C
30
40
80
FF
ENDCHAR
STARTCHAR 051
ENCODING 51
SWIDTH 648 0
DWIDTH 9 0
BBX 7 10 2 -5
BITMAP
78
84
02
04
38
04
02
02
84
78
ENDCHAR
STARTCHAR 052
ENCODING 52
SWIDTH 648 0
DWIDTH 9 0
BBX 7 10 2 -5
BITMAP
04
0C
14
24
44
FE
04
04
04
04
ENDCHAR
STARTCHAR 053
ENCODING 53
SWIDTH 648 0
DWIDTH 9 0
BBX 8 10 1 -5
BITMAP
FE
80
80
FC
02
01
01
01
82
7C
ENDCHAR
STARTCHAR 054
ENCODING 54
SWIDTH 648 0
DWIDTH 9 0
BBX 8 10 1 -5
BITMAP
3E
40
80
BC
C2
81
81
81
42
3C
ENDCHAR
STARTCHAR 055
ENCODING 55
SWIDTH 648 0
DWIDTH 9 0
BBX 8 10 1 -5
BITMAP
FF
01
02
04
08
08
10
10
10
10
ENDCHAR
STARTCHAR 056
ENCODING 56
SWIDTH 648 0
DWIDTH 9 0
BBX 8 10 1 -5
BITMAP
3C
42
42
3C
42
81
81
81
42
3C
ENDCHAR
STARTCHAR 057
ENCODING 57
SWIDTH 648 0
DWIDTH 9 0
BBX 8 10 1 -5
BITMAP
3C
42
81
81
81
43
3D
01
02
3C
ENDCHAR
STARTCHAR 058
ENCODING 58
SWIDTH 648 0
DWIDTH 9 0
BBX 2 7 4 -4
BITMAP
C0
C0
00
00
00
C0
C0
ENDCHAR
STARTCHAR 059
ENCODING 59
SWIDTH 648 0
DWIDTH 9 0
BBX 3 8 3 -5
BITMAP
60
60
00
00
00
60
60
C0
ENDCHAR
STARTCHAR 060
ENCODING 60
SWIDTH 648 0
DWIDTH 9 0
BBX 6 5 2 -3
BITMAP
0C
30
C0
30
0C
ENDCHAR
STARTCHAR 061
ENCODING 61
SWIDTH 648 0
DWIDTH 9 0
BBX 6 3 2 -2
BITMAP
FC
00
FC
ENDCHAR
STARTCHAR 062
ENCODING 62
SWIDTH 648 0
DWIDTH 9 0
BBX 6 5 2 -3
BITMAP
C0
30
0C
30
C0
ENDCHAR
STARTCHAR 063
ENCODING 63
SWIDTH 648 0
DWIDTH 9 0
BBX 6 10 2 -5
BITMAP
78
84
84
04
18
20
20
00
20
20
ENDCHAR
STARTCHAR 064
ENCODING 64
SWIDTH 648 0
DWIDTH 9 0
BBX 8 9 1 -5
BITMAP
3C
42
99
A5
A5
A2
9C
41
3E
ENDCHAR
STARTCHAR 065
ENCODING 65
SWIDTH 648 0
DWIDTH 9 0
BBX 8 10 1 -5
BITMAP
18
18
24
24
24
7E
42
42
81
81
ENDCHAR
STARTCHAR 066
ENCODING 66
SWIDTH 648 0
DWIDTH 9 0
BBX 7 10 2 -5
BITMAP
F8
84
84
84
F8
84
82
82
82
FC
ENDCHAR
STARTCHAR 067
ENCODING 67
SWIDTH 648 0
DWIDTH 9 0
BBX 8 10 1 -5
BITMAP
3E
41
80
80
80
80
80
80
41
3E
ENDCHAR
STARTCHAR 068
ENCODING 68
SWIDTH 648 0
DWIDTH 9 0
BBX 7 10 2 -5
BITMAP
F8
84
82
82
82
82
82
82
82
FC
ENDCHAR
STARTCHAR 069
ENCODING 69
SWIDTH 648 0
DWIDTH 9 0
BBX 8 10 1 -5
BITMAP
FF
80
80
80
F8
80
80
80
80
FF
ENDCHAR
STARTCHAR 070
ENCODING 70
SWIDTH 648 0
DWIDTH 9 0
BBX 8 10 1 -5
BITMAP
FF
80
80
80
F8
80
80
80
80
80
ENDCHAR
STARTCHAR 071
ENCODING 71
SWIDTH 648 0
DWIDTH 9 0
BBX 8 10 1 -5
BITMAP
3E
41
80
80
9F
81
81
81
41
3E
ENDCHAR
STARTCHAR 072
ENCODING 72
SWIDTH 648 0
DWIDTH 9 0
BBX 8 10 1 -5
BITMAP
81
81
81
81
FF
81
81
81
81
81
ENDCHAR
STARTCHAR 073
ENCODING 73
SWIDTH 648 0
DWIDTH 9 0
BBX 5 10 3 -5
BITMAP
F8
20
20
20
20
20
20
20
20
F8
ENDCHAR
STARTCHAR 074
ENCODING 74
SWIDTH 648 0
DWIDTH 9 0
BBX 7 10 2 -5
BITMAP
3E
08
08
08
08
08
08
88
88
70
ENDCHAR
STARTCHAR 075
ENCODING 75
SWIDTH 648 0
DWIDTH 9 0
BBX 7 10 1 -5
BITMAP
82
84
88
90
E0
E0
90
88
84
82
ENDCHAR
STARTCHAR 076
ENCODING 76
SWIDTH 648 0
DWIDTH 9 0
BBX 8 10 1 -5
BITMAP
80
80
80
80
80
80
80
80
80
FF
ENDCHAR
STARTCHAR 077
ENCODING 77
SWIDTH 648 0
DWIDTH 9 0
BBX 7 10 2 -5
BITMAP
82
C6
AA
92
82
82
82
82
82
82
ENDCHAR
STARTCHAR 078
ENCODING 78
SWIDTH 648 0
DWIDTH 9 0
BBX 7 10 2 -5
BITMAP
82
C2
C2
A2
92
92
8A
86
86
82
ENDCHAR
STARTCHAR 079
ENCODING 79
SWIDTH 648 0
DWIDTH 9 0
BBX 8 10 1 -5
BITMAP
3C
42
81
81
81
81
81
81
42
3C
ENDCHAR
STARTCHAR 080
ENCODING 80
SWIDTH 648 0
DWIDTH 9 0
BBX 8 10 1 -5
BITMAP
FE
81
81
81
FE
80
80
80
80
80
ENDCHAR
STARTCHAR 081
ENCODING 81
SWIDTH 648 0
DWIDTH 9 0
BBX 8 12 1 -7
BITMAP
3C
42
81
81
81
81
81
89
4A
3C
04
02
ENDCHAR
STARTCHAR 082
ENCODING 82
SWIDTH 648 0
DWIDTH 9 0
BBX 8 10 1 -5
BITMAP
FE
81
81
81
FE
84
82
82
81
81
ENDCHAR
STARTCHAR 083
ENCODING 83
SWIDTH 648 0
DWIDTH 9 0
BBX 8 10 1 -5
BITMAP
7E
81
80
80
70
0E
01
01
81
7E
ENDCHAR
STARTCHAR 084
ENCODING 84
SWIDTH 648 0
DWIDTH 9 0
BBX 7 10 2 -5
BITMAP
FE
10
10
10
10
10
10
10
10
10
ENDCHAR
STARTCHAR 085
ENCODING 85
SWIDTH 648 0
DWIDTH 9 0
BBX 8 10 1 -5
BITMAP
81
81
81
81
81
81
81
81
42
3C
ENDCHAR
STARTCHAR 086
ENCODING 86
SWIDTH 648 0
DWIDTH 9 0
BBX 8 10 1 -5
BITMAP
81
81
42
42
42
24
24
24
18
18
ENDCHAR
STARTCHAR 087
ENCODING 87
SWIDTH 648 0
DWIDTH 9 0
BBX 7 10 2 -5
BITMAP
82
82
82
82
92
92
54
6C
6C
44
ENDCHAR
STARTCHAR 088
ENCODING 88
SWIDTH 648 0
DWIDTH 9 0
BBX 8 10 1 -5
BITMAP
81
42
42
24
18
18
24
42
42
81
ENDCHAR
STARTCHAR 089
ENCODING 89
SWIDTH 648 0
DWIDTH 9 0
BBX 7 10 2 -5
BITMAP
82
82
44
44
28
10
10
10
10
10
ENDCHAR
STARTCHAR 090
ENCODING 90
SWIDTH 648 0
DWIDTH 9 0
BBX 8 10 1 -5
BITMAP
FF
01
02
04
08
10
20
40
80
FF
ENDCHAR
STARTCHAR 091
ENCODING 91
SWIDTH 648 0
DWIDTH 9 0
BBX 3 10 4 -5
BITMAP
E0
80
80
80
80
80
80
80
80
E0
ENDCHAR
STARTCHAR 092
ENCODING 92
SWIDTH 648 0
DWIDTH 9 0
BBX 5 10 3 -5
BITMAP
80
80
40
40
20
20
10
10
08
08
ENDCHAR
STARTCHAR 093
ENCODING 93
SWIDTH 648 0
DWIDTH 9 0
BBX 3 10 3 -5
BITMAP
E0
20
20
20
20
20
20
20
20
E0
ENDCHAR
STARTCHAR 094
ENCODING 94
SWIDTH 648 0
DWIDTH 9 0
BBX 5 3 3 2
BITMAP
20
50
88
ENDCHAR
STARTCHAR 095
ENCODING 95
SWIDTH 648 0
DWIDTH 9 0
BBX 9 1 0 -9
BITMAP
FF80
ENDCHAR
STARTCHAR 096
ENCODING 96
SWIDTH 648 0
DWIDTH 9 0
BBX 3 3 4 2
BITMAP
80
40
20
ENDCHAR
STARTCHAR 097
ENCODING 97
SWIDTH 648 0
DWIDTH 9 0
BBX 7 8 2 -5
BITMAP
7C
02
7E
82
82
82
86
7A
ENDCHAR
STARTCHAR 098
ENCODING 98
SWIDTH 648 0
DWIDTH 9 0
BBX 8 11 1 -5
BITMAP
80
80
80
BC
C2
81
81
81
81
C2
BC
ENDCHAR
STARTCHAR 099
ENCODING 99
SWIDTH 648 0
DWIDTH 9 0
BBX 7 8 2 -5
BITMAP
3C
42
80
80
80
80
42
3C
ENDCHAR
STARTCHAR 100
ENCODING 100
SWIDTH 648 0
DWIDTH 9 0
BBX 8 11 1 -5
BITMAP
01
01
01
3D
43
81
81
81
81
43
3D
ENDCHAR
STARTCHAR 101
ENCODING 101
SWIDTH 648 0
DWIDTH 9 0
BBX 8 8 1 -5
BITMAP
3C
42
81
81
FF
80
41
3E
ENDCHAR
STARTCHAR 102
ENCODING 102
SWIDTH 648 0
DWIDTH 9 0
BBX 6 11 2 -5
BITMAP
38
44
40
40
F0
40
40
40
40
40
40
ENDCHAR
STARTCHAR 103
ENCODING 103
SWIDTH 648 0
DWIDTH 9 0
BBX 8 12 1 -9
BITMAP
3D
43
81
81
81
81
43
3D
01
01
42
3C
ENDCHAR
STARTCHAR 104
ENCODING 104
SWIDTH 648 0
DWIDTH 9 0
BBX 8 11 1 -5
BITMAP
80
80
80
BC
C2
81
81
81
81
81
81
ENDCHAR
STARTCHAR 105
ENCODING 105
SWIDTH 648 0
DWIDTH 9 0
BBX 3 11 4 -5
BITMAP
40
40
00
E0
40
40
40
40
40
40
E0
ENDCHAR
STARTCHAR 106
ENCODING 106
SWIDTH 648 0
DWIDTH 9 0
BBX 7 15 1 -9
BITMAP
02
02
00
06
02
02
02
02
02
02
02
82
82
44
38
ENDCHAR
STARTCHAR 107
ENCODING 107
SWIDTH 648 0
DWIDTH 9 0
BBX 6 11 1 -5
BITMAP
80
80
80
88
90
A0
C0
A0
90
88
84
ENDCHAR
STARTCHAR 108
ENCODING 108
SWIDTH 648 0
DWIDTH 9 0
BBX 3 11 4 -5
BITMAP
C0
40
40
40
40
40
40
40
40
40
60
ENDCHAR
STARTCHAR 109
ENCODING 109
SWIDTH 648 0
DWIDTH 9 0
BBX 7 8 2 -5
BITMAP
A4
DA
92
92
92
92
92
92
ENDCHAR
STARTCHAR 110
ENCODING 110
SWIDTH 648 0
DWIDTH 9 0
BBX 8 8 1 -5
BITMAP
BC
C2
81
81
81
81
81
81
ENDCHAR
STARTCHAR 111
ENCODING 111
SWIDTH 648 0
DWIDTH 9 0
BBX 8 8 1 -5
BITMAP
3C
42
81
81
81
81
42
3C
ENDCHAR
STARTCHAR 112
ENCODING 112
SWIDTH 648 0
DWIDTH 9 0
BBX 8 12 1 -9
BITMAP
BC
C2
81
81
81
81
C2
BC
80
80
80
80
ENDCHAR
STARTCHAR 113
ENCODING 113
SWIDTH 648 0
DWIDTH 9 0
BBX 8 12 1 -9
BITMAP
3D
43
81
81
81
81
43
3D
01
01
01
01
ENDCHAR
STARTCHAR 114
ENCODING 114
SWIDTH 648 0
DWIDTH 9 0
BBX 6 8 2 -5
BITMAP
B8
C4
80
80
80
80
80
80
ENDCHAR
STARTCHAR 115
ENCODING 115
SWIDTH 648 0
DWIDTH 9 0
BBX 8 8 1 -5
BITMAP
7E
81
80
70
0E
01
81
7E
ENDCHAR
STARTCHAR 116
ENCODING 116
SWIDTH 648 0
DWIDTH 9 0
BBX 6 10 2 -5
BITMAP
40
40
F0
40
40
40
40
44
44
38
ENDCHAR
STARTCHAR 117
ENCODING 117
SWIDTH 648 0
DWIDTH 9 0
BBX 8 8 1 -5
BITMAP
81
81
81
81
81
81
43
3D
ENDCHAR
STARTCHAR 118
ENCODING 118
SWIDTH 648 0
DWIDTH 9 0
BBX 8 8 1 -5
BITMAP
81
81
42
42
24
24
18
18
ENDCHAR
STARTCHAR 119
ENCODING 119
SWIDTH 648 0
DWIDTH 9 0
BBX 7 8 2 -5
BITMAP
82
82
82
54
54
54
28
28
ENDCHAR
STARTCHAR 120
ENCODING 120
SWIDTH 648 0
DWIDTH 9 0
BBX 8 8 1 -5
BITMAP
81
42
24
18
18
24
42
81
ENDCHAR
STARTCHAR 121
ENCODING 121
SWIDTH 648 0
DWIDTH 9 0
BBX 8 12 1 -9
BITMAP
81
81
81
81
81
81
43
3D
01
01
42
3C
ENDCHAR
STARTCHAR 122
ENCODING 122
SWIDTH 648 0
DWIDTH 9 0
BBX 8 8 1 -5
BITMAP
FF
01
06
08
10
60
80
FF
ENDCHAR
STARTCHAR 123
ENCODING 123
SWIDTH 648 0
DWIDTH 9 0
BBX 4 10 3 -5
BITMAP
30
40
40
20
E0
20
40
40
40
30
ENDCHAR
STARTCHAR 124
ENCODING 124
SWIDTH 648 0
DWIDTH 9 0
BBX 1 10 5 -5
BITMAP
80
80
80
80
80
80
80
80
80
80
ENDCHAR
STARTCHAR 125
ENCODING 125
SWIDTH 648 0
DWIDTH 9 0
BBX 4 10 3 -5
BITMAP
C0
20
20
40
70
40
20
20
20
C0
ENDCHAR
STARTCHAR 126
ENCODING 126
SWIDTH 648 0
DWIDTH 9 0
BBX 7 3 2 -2
BITMAP
60
92
0C
ENDCHAR
STARTCHAR 127
ENCODING 127
SWIDTH 648 0
DWIDTH 9 0
BBX 8 9 1 -5
BITMAP
C0
A0
B8
B0
DC
14
1C
04
07
ENDCHAR
STARTCHAR 128
ENCODING 128
SWIDTH 648 0
DWIDTH 9 0
BBX 0 0 0 0
BITMAP
ENDCHAR
STARTCHAR 129
ENCODING 129
SWIDTH 648 0
DWIDTH 9 0
BBX 0 0 0 0
BITMAP
ENDCHAR
STARTCHAR 130
ENCODING 130
SWIDTH 648 0
DWIDTH 9 0
BBX 0 0 0 0
BITMAP
ENDCHAR
STARTCHAR 131
ENCODING 131
SWIDTH 648 0
DWIDTH 9 0
BBX 0 0 0 0
BITMAP
ENDCHAR
STARTCHAR 132
ENCODING 132
SWIDTH 648 0
DWIDTH 9 0
BBX 0 0 0 0
BITMAP
ENDCHAR
STARTCHAR 133
ENCODING 133
SWIDTH 648 0
DWIDTH 9 0
BBX 0 0 0 0
BITMAP
ENDCHAR
STARTCHAR 134
ENCODING 134
SWIDTH 648 0
DWIDTH 9 0
BBX 0 0 0 0
BITMAP
ENDCHAR
STARTCHAR 135
ENCODING 135
SWIDTH 648 0
DWIDTH 9 0
BBX 0 0 0 0
BITMAP
ENDCHAR
STARTCHAR 136
ENCODING 136
SWIDTH 648 0
DWIDTH 9 0
BBX 0 0 0 0
BITMAP
ENDCHAR
STARTCHAR 137
ENCODING 137
SWIDTH 648 0
DWIDTH 9 0
BBX 0 0 0 0
BITMAP
ENDCHAR
STARTCHAR 138
ENCODING 138
SWIDTH 648 0
DWIDTH 9 0
BBX 0 0 0 0
BITMAP
ENDCHAR
STARTCHAR 139
ENCODING 139
SWIDTH 648 0
DWIDTH 9 0
BBX 0 0 0 0
BITMAP
ENDCHAR
STARTCHAR 140
ENCODING 140
SWIDTH 648 0
DWIDTH 9 0
BBX 0 0 0 0
BITMAP
ENDCHAR
STARTCHAR 141
ENCODING 141
SWIDTH 648 0
DWIDTH 9 0
BBX 0 0 0 0
BITMAP
ENDCHAR
STARTCHAR 142
ENCODING 142
SWIDTH 648 0
DWIDTH 9 0
BBX 0 0 0 0
BITMAP
ENDCHAR
STARTCHAR 143
ENCODING 143
SWIDTH 648 0
DWIDTH 9 0
BBX 0 0 0 0
BITMAP
ENDCHAR
STARTCHAR 144
ENCODING 144
SWIDTH 648 0
DWIDTH 9 0
BBX 0 0 0 0
BITMAP
ENDCHAR
STARTCHAR 145
ENCODING 145
SWIDTH 648 0
DWIDTH 9 0
BBX 0 0 0 0
BITMAP
ENDCHAR
STARTCHAR 146
ENCODING 146
SWIDTH 648 0
DWIDTH 9 0
BBX 0 0 0 0
BITMAP
ENDCHAR
STARTCHAR 147
ENCODING 147
SWIDTH 648 0
DWIDTH 9 0
BBX 0 0 0 0
BITMAP
ENDCHAR
STARTCHAR 148
ENCODING 148
SWIDTH 648 0
DWIDTH 9 0
BBX 0 0 0 0
BITMAP
ENDCHAR
STARTCHAR 149
ENCODING 149
SWIDTH 648 0
DWIDTH 9 0
BBX 0 0 0 0
BITMAP
ENDCHAR
STARTCHAR 150
ENCODING 150
SWIDTH 648 0
DWIDTH 9 0
BBX 0 0 0 0
BITMAP
ENDCHAR
STARTCHAR 151
ENCODING 151
SWIDTH 648 0
DWIDTH 9 0
BBX 0 0 0 0
BITMAP
ENDCHAR
STARTCHAR 152
ENCODING 152
SWIDTH 648 0
DWIDTH 9 0
BBX 0 0 0 0
BITMAP
ENDCHAR
STARTCHAR 153
ENCODING 153
SWIDTH 648 0
DWIDTH 9 0
BBX 0 0 0 0
BITMAP
ENDCHAR
STARTCHAR 154
ENCODING 154
SWIDTH 648 0
DWIDTH 9 0
BBX 0 0 0 0
BITMAP
ENDCHAR
STARTCHAR 155
ENCODING 155
SWIDTH 648 0
DWIDTH 9 0
BBX 0 0 0 0
BITMAP
ENDCHAR
STARTCHAR 156
ENCODING 156
SWIDTH 648 0
DWIDTH 9 0
BBX 0 0 0 0
BITMAP
ENDCHAR
STARTCHAR 157
ENCODING 157
SWIDTH 648 0
DWIDTH 9 0
BBX 0 0 0 0
BITMAP
ENDCHAR
STARTCHAR 158
ENCODING 158
SWIDTH 648 0
DWIDTH 9 0
BBX 0 0 0 0
BITMAP
ENDCHAR
STARTCHAR 159
ENCODING 159
SWIDTH 648 0
DWIDTH 9 0
BBX 0 0 0 0
BITMAP
ENDCHAR
STARTCHAR 160
ENCODING 160
SWIDTH 648 0
DWIDTH 9 0
BBX 0 0 0 0
BITMAP
ENDCHAR
STARTCHAR 161
ENCODING 161
SWIDTH 648 0
DWIDTH 9 0
BBX 2 10 4 -5
BITMAP
40
40
00
40
40
40
C0
C0
C0
C0
ENDCHAR
STARTCHAR 162
ENCODING 162
SWIDTH 648 0
DWIDTH 9 0
BBX 7 10 2 -5
BITMAP
10
3C
52
90
90
90
90
52
3C
10
ENDCHAR
STARTCHAR 163
ENCODING 163
SWIDTH 648 0
DWIDTH 9 0
BBX 8 11 1 -5
BITMAP
38
44
40
20
20
F8
20
20
20
41
FE
ENDCHAR
STARTCHAR 164
ENCODING 164
SWIDTH 648 0
DWIDTH 9 0
BBX 6 6 2 -3
BITMAP
B4
48
84
84
48
B4
ENDCHAR
STARTCHAR 165
ENCODING 165
SWIDTH 648 0
DWIDTH 9 0
BBX 7 10 2 -5
BITMAP
82
82
44
44
EE
10
FE
10
10
10
ENDCHAR
STARTCHAR 166
ENCODING 166
SWIDTH 648 0
DWIDTH 9 0
BBX 1 10 5 -5
BITMAP
80
80
80
80
00
00
80
80
80
80
ENDCHAR
STARTCHAR 167
ENCODING 167
SWIDTH 648 0
DWIDTH 9 0
BBX 4 10 3 -5
BITMAP
60
90
80
60
90
90
60
10
90
60
ENDCHAR
STARTCHAR 168
ENCODING 168
SWIDTH 648 0
DWIDTH 9 0
BBX 6 2 2 3
BITMAP
CC
CC
ENDCHAR
STARTCHAR 169
ENCODING 169
SWIDTH 648 0
DWIDTH 9 0
BBX 8 10 1 -5
BITMAP
3C
42
99
A5
A1
A1
A5
99
42
3C
ENDCHAR
STARTCHAR 170
ENCODING 170
SWIDTH 648 0
DWIDTH 9 0
BBX 5 7 2 -1
BITMAP
70
08
78
98
68
00
F8
ENDCHAR
STARTCHAR 171
ENCODING 171
SWIDTH 648 0
DWIDTH 9 0
BBX 7 7 2 -4
BITMAP
12
24
48
90
48
24
12
ENDCHAR
STARTCHAR 172
ENCODING 172
SWIDTH 648 0
DWIDTH 9 0
BBX 7 3 2 -2
BITMAP
FE
02
02
ENDCHAR
STARTCHAR 173
ENCODING 173
SWIDTH 648 0
DWIDTH 9 0
BBX 0 0 0 0
BITMAP
ENDCHAR
STARTCHAR 174
ENCODING 174
SWIDTH 648 0
DWIDTH 9 0
BBX 8 10 1 -5
BITMAP
3C
42
B9
A5
A5
B9
A5
A5
42
3C
ENDCHAR
STARTCHAR 175
ENCODING 175
SWIDTH 648 0
DWIDTH 9 0
BBX 4 1 3 4
BITMAP
F0
ENDCHAR
STARTCHAR 176
ENCODING 176
SWIDTH 648 0
DWIDTH 9 0
BBX 5 5 2 1
BITMAP
70
88
88
88
70
ENDCHAR
STARTCHAR 177
ENCODING 177
SWIDTH 648 0
DWIDTH 9 0
BBX 7 9 2 -4
BITMAP
10
10
10
FE
10
10
10
00
FE
ENDCHAR
STARTCHAR 178
ENCODING 178
SWIDTH 648 0
DWIDTH 9 0
BBX 4 5 3 1
BITMAP
60
90
20
40
F0
ENDCHAR
STARTCHAR 179
ENCODING 179
SWIDTH 648 0
DWIDTH 9 0
BBX 4 5 3 1
BITMAP
60
90
20
90
60
ENDCHAR
STARTCHAR 180
ENCODING 180
SWIDTH 648 0
DWIDTH 9 0
BBX 3 3 4 2
BITMAP
20
40
80
ENDCHAR
STARTCHAR 181
ENCODING 181
SWIDTH 648 0
DWIDTH 9 0
BBX 8 12 1 -9
BITMAP
82
82
82
82
82
82
C2
BD
80
80
80
80
ENDCHAR
STARTCHAR 182
ENCODING 182
SWIDTH 648 0
DWIDTH 9 0
BBX 8 12 1 -5
BITMAP
7F
E4
E4
E4
E4
64
24
24
24
24
24
24
ENDCHAR
STARTCHAR 183
ENCODING 183
SWIDTH 648 0
DWIDTH 9 0
BBX 2 2 4 -1
BITMAP
C0
C0
ENDCHAR
STARTCHAR 184
ENCODING 184
SWIDTH 648 0
DWIDTH 9 0
BBX 3 4 4 -9
BITMAP
80
C0
20
C0
ENDCHAR
STARTCHAR 185
ENCODING 185
SWIDTH 648 0
DWIDTH 9 0
BBX 3 5 3 1
BITMAP
40
C0
40
40
E0
ENDCHAR
STARTCHAR 186
ENCODING 186
SWIDTH 648 0
DWIDTH 9 0
BBX 5 7 2 -2
BITMAP
70
88
88
88
70
00
F8
ENDCHAR
STARTCHAR 187
ENCODING 187
SWIDTH 648 0
DWIDTH 9 0
BBX 7 7 2 -4
BITMAP
90
48
24
12
24
48
90
ENDCHAR
STARTCHAR 188
ENCODING 188
SWIDTH 648 0
DWIDTH 9 0
BBX 8 12 1 -6
BITMAP
40
C0
41
42
E4
08
10
25
45
87
01
01
ENDCHAR
STARTCHAR 189
ENCODING 189
SWIDTH 648 0
DWIDTH 9 0
BBX 8 12 1 -6
BITMAP
40
C0
41
42
E4
08
10
27
41
87
04
07
ENDCHAR
STARTCHAR 190
ENCODING 190
SWIDTH 648 0
DWIDTH 9 0
BBX 8 12 1 -6
BITMAP
E0
20
E1
22
E4
08
10
25
45
87
01
01
ENDCHAR
STARTCHAR 191
ENCODING 191
SWIDTH 648 0
DWIDTH 9 0
BBX 6 10 2 -5
BITMAP
10
10
00
10
10
60
80
84
84
78
ENDCHAR
STARTCHAR 192
ENCODING 192
SWIDTH 648 0
DWIDTH 9 0
BBX 8 14 1 -5
BITMAP
20
10
08
00
18
18
24
24
24
7E
42
42
81
81
ENDCHAR
STARTCHAR 193
ENCODING 193
SWIDTH 648 0
DWIDTH 9 0
BBX 8 14 1 -5
BITMAP
04
08
10
00
18
18
24
24
24
7E
42
42
81
81
ENDCHAR
STARTCHAR 194
ENCODING 194
SWIDTH 648 0
DWIDTH 9 0
BBX 8 13 1 -5
BITMAP
18
24
00
18
18
24
24
24
7E
42
42
81
81
ENDCHAR
STARTCHAR 195
ENCODING 195
SWIDTH 648 0
DWIDTH 9 0
BBX 8 13 1 -5
BITMAP
14
28
00
18
18
24
24
24
7E
42
42
81
81
ENDCHAR
STARTCHAR 196
ENCODING 196
SWIDTH 648 0
DWIDTH 9 0
BBX 8 13 1 -5
BITMAP
66
66
00
18
18
24
24
24
7E
42
42
81
81
ENDCHAR
STARTCHAR 197
ENCODING 197
SWIDTH 648 0
DWIDTH 9 0
BBX 8 13 1 -5
BITMAP
18
24
24
18
18
24
24
24
7E
42
42
81
81
ENDCHAR
STARTCHAR 198
ENCODING 198
SWIDTH 648 0
DWIDTH 9 0
BBX 8 10 1 -5
BITMAP
1F
18
28
28
2E
48
78
48
88
8F
ENDCHAR
STARTCHAR 199
ENCODING 199
SWIDTH 648 0
DWIDTH 9 0
BBX 8 14 1 -9
BITMAP
3E
41
80
80
80
80
80
80
41
3E
10
18
04
18
ENDCHAR
STARTCHAR 200
ENCODING 200
SWIDTH 648 0
DWIDTH 9 0
BBX 8 14 1 -5
BITMAP
20
10
08
00
FF
80
80
80
F8
80
80
80
80
FF
ENDCHAR
STARTCHAR 201
ENCODING 201
SWIDTH 648 0
DWIDTH 9 0
BBX 8 14 1 -5
BITMAP
04
08
10
00
FF
80
80
80
F8
80
80
80
80
FF
ENDCHAR
STARTCHAR 202
ENCODING 202
SWIDTH 648 0
DWIDTH 9 0
BBX 8 13 1 -5
BITMAP
18
24
00
FF
80
80
80
F8
80
80
80
80
FF
ENDCHAR
STARTCHAR 203
ENCODING 203
SWIDTH 648 0
DWIDTH 9 0
BBX 8 13 1 -5
BITMAP
66
66
00
FF
80
80
80
F8
80
80
80
80
FF
ENDCHAR
STARTCHAR 204
ENCODING 204
SWIDTH 648 0
DWIDTH 9 0
BBX 5 14 3 -5
BITMAP
80
40
20
00
F8
20
20
20
20
20
20
20
20
F8
ENDCHAR
STARTCHAR 205
ENCODING 205
SWIDTH 648 0
DWIDTH 9 0
BBX 5 14 3 -5
BITMAP
08
10
20
00
F8
20
20
20
20
20
20
20
20
F8
ENDCHAR
STARTCHAR 206
ENCODING 206
SWIDTH 648 0
DWIDTH 9 0
BBX 5 13 3 -5
BITMAP
20
50
00
F8
20
20
20
20
20
20
20
20
F8
ENDCHAR
STARTCHAR 207
ENCODING 207
SWIDTH 648 0
DWIDTH 9 0
BBX 5 13 3 -5
BITMAP
D8
D8
00
F8
20
20
20
20
20
20
20
20
F8
ENDCHAR
STARTCHAR 208
ENCODING 208
SWIDTH 648 0
DWIDTH 9 0
BBX 8 10 1 -5
BITMAP
7C
42
41
41
41
F9
41
41
41
7E
ENDCHAR
STARTCHAR 209
ENCODING 209
SWIDTH 648 0
DWIDTH 9 0
BBX 7 13 2 -5
BITMAP
64
98
00
82
C2
C2
A2
92
92
8A
86
86
82
ENDCHAR
STARTCHAR 210
ENCODING 210
SWIDTH 648 0
DWIDTH 9 0
BBX 8 14 1 -5
BITMAP
20
10
08
00
3C
42
81
81
81
81
81
81
42
3C
ENDCHAR
STARTCHAR 211
ENCODING 211
SWIDTH 648 0
DWIDTH 9 0
BBX 8 14 1 -5
BITMAP
04
08
10
00
3C
42
81
81
81
81
81
81
42
3C
ENDCHAR
STARTCHAR 212
ENCODING 212
SWIDTH 648 0
DWIDTH 9 0
BBX 8 13 1 -5
BITMAP
18
24
00
3C
42
81
81
81
81
81
81
42
3C
ENDCHAR
STARTCHAR 213
ENCODING 213
SWIDTH 648 0
DWIDTH 9 0
BBX 8 13 1 -5
BITMAP
32
4C
00
3C
42
81
81
81
81
81
81
42
3C
ENDCHAR
STARTCHAR 214
ENCODING 214
SWIDTH 648 0
DWIDTH 9 0
BBX 8 13 1 -5
BITMAP
66
66
00
3C
42
81
81
81
81
81
81
42
3C
ENDCHAR
STARTCHAR 215
ENCODING 215
SWIDTH 648 0
DWIDTH 9 0
BBX 7 7 2 -5
BITMAP
82
44
28
10
28
44
82
ENDCHAR
STARTCHAR 216
ENCODING 216
SWIDTH 648 0
DWIDTH 9 0
BBX 8 10 1 -5
BITMAP
3D
42
85
85
89
91
A1
A1
42
BC
ENDCHAR
STARTCHAR 217
ENCODING 217
SWIDTH 648 0
DWIDTH 9 0
BBX 8 14 1 -5
BITMAP
20
10
08
00
81
81
81
81
81
81
81
81
42
3C
ENDCHAR
STARTCHAR 218
ENCODING 218
SWIDTH 648 0
DWIDTH 9 0
BBX 8 14 1 -5
BITMAP
04
08
10
00
81
81
81
81
81
81
81
81
42
3C
ENDCHAR
STARTCHAR 219
ENCODING 219
SWIDTH 648 0
DWIDTH 9 0
BBX 8 13 1 -5
BITMAP
18
24
00
81
81
81
81
81
81
81
81
42
3C
ENDCHAR
STARTCHAR 220
ENCODING 220
SWIDTH 648 0
DWIDTH 9 0
BBX 8 13 1 -5
BITMAP
66
66
00
81
81
81
81
81
81
81
81
42
3C
ENDCHAR
STARTCHAR 221
ENCODING 221
SWIDTH 648 0
DWIDTH 9 0
BBX 7 14 2 -5
BITMAP
08
10
20
00
82
82
44
44
28
10
10
10
10
10
ENDCHAR
STARTCHAR 222
ENCODING 222
SWIDTH 648 0
DWIDTH 9 0
BBX 7 10 1 -5
BITMAP
80
80
FC
82
82
82
82
FC
80
80
ENDCHAR
STARTCHAR 223
ENCODING 223
SWIDTH 648 0
DWIDTH 9 0
BBX 7 10 2 -5
BITMAP
78
84
84
88
90
88
84
A2
A2
9C
ENDCHAR
STARTCHAR 224
ENCODING 224
SWIDTH 648 0
DWIDTH 9 0
BBX 7 12 2 -5
BITMAP
20
10
08
00
7C
02
7E
82
82
82
86
7A
ENDCHAR
STARTCHAR 225
ENCODING 225
SWIDTH 648 0
DWIDTH 9 0
BBX 7 12 2 -5
BITMAP
08
10
20
00
7C
02
7E
82
82
82
86
7A
ENDCHAR
STARTCHAR 226
ENCODING 226
SWIDTH 648 0
DWIDTH 9 0
BBX 7 12 2 -5
BITMAP
10
28
44
00
7C
02
7E
82
82
82
86
7A
ENDCHAR
STARTCHAR 227
ENCODING 227
SWIDTH 648 0
DWIDTH 9 0
BBX 7 11 2 -5
BITMAP
32
4C
00
7C
02
7E
82
82
82
86
7A
ENDCHAR
STARTCHAR 228
ENCODING 228
SWIDTH 648 0
DWIDTH 9 0
BBX 7 11 2 -5
BITMAP
66
66
00
7C
02
7E
82
82
82
86
7A
ENDCHAR
STARTCHAR 229
ENCODING 229
SWIDTH 648 0
DWIDTH 9 0
BBX 7 13 2 -5
BITMAP
18
24
24
18
00
7C
02
7E
82
82
82
86
7A
ENDCHAR
STARTCHAR 230
ENCODING 230
SWIDTH 648 0
DWIDTH 9 0
BBX 8 8 1 -5
BITMAP
76
09
09
79
8F
88
89
76
ENDCHAR
STARTCHAR 231
ENCODING 231
SWIDTH 648 0
DWIDTH 9 0
BBX 7 12 2 -9
BITMAP
3C
42
80
80
80
80
42
3C
10
18
04
18
ENDCHAR
STARTCHAR 232
ENCODING 232
SWIDTH 648 0
DWIDTH 9 0
BBX 8 12 1 -5
BITMAP
10
08
04
00
3C
42
81
81
FF
80
41
3E
ENDCHAR
STARTCHAR 233
ENCODING 233
SWIDTH 648 0
DWIDTH 9 0
BBX 8 12 1 -5
BITMAP
04
08
10
00
3C
42
81
81
FF
80
41
3E
ENDCHAR
STARTCHAR 234
ENCODING 234
SWIDTH 648 0
DWIDTH 9 0
BBX 8 11 1 -5
BITMAP
18
24
00
3C
42
81
81
FF
80
41
3E
ENDCHAR
STARTCHAR 235
ENCODING 235
SWIDTH 648 0
DWIDTH 9 0
BBX 8 11 1 -5
BITMAP
66
66
00
3C
42
81
81
FF
80
41
3E
ENDCHAR
STARTCHAR 236
ENCODING 236
SWIDTH 648 0
DWIDTH 9 0
BBX 4 12 3 -5
BITMAP
80
40
20
00
70
20
20
20
20
20
20
70
ENDCHAR
STARTCHAR 237
ENCODING 237
SWIDTH 648 0
DWIDTH 9 0
BBX 4 12 4 -5
BITMAP
10
20
40
00
E0
40
40
40
40
40
40
E0
ENDCHAR
STARTCHAR 238
ENCODING 238
SWIDTH 648 0
DWIDTH 9 0
BBX 3 11 4 -5
BITMAP
40
A0
00
E0
40
40
40
40
40
40
E0
ENDCHAR
STARTCHAR 239
ENCODING 239
SWIDTH 648 0
DWIDTH 9 0
BBX 5 11 3 -5
BITMAP
D8
D8
00
70
20
20
20
20
20
20
70
ENDCHAR
STARTCHAR 240
ENCODING 240
SWIDTH 648 0
DWIDTH 9 0
BBX 8 10 1 -5
BITMAP
04
3C
0A
01
3D
43
81
81
42
3C
ENDCHAR
STARTCHAR 241
ENCODING 241
SWIDTH 648 0
DWIDTH 9 0
BBX 8 11 1 -5
BITMAP
32
4C
00
BC
C2
81
81
81
81
81
81
ENDCHAR
STARTCHAR 242
ENCODING 242
SWIDTH 648 0
DWIDTH 9 0
BBX 8 12 1 -5
BITMAP
20
10
08
00
3C
42
81
81
81
81
42
3C
ENDCHAR
STARTCHAR 243
ENCODING 243
SWIDTH 648 0
DWIDTH 9 0
BBX 8 12 1 -5
BITMAP
04
08
10
00
3C
42
81
81
81
81
42
3C
ENDCHAR
STARTCHAR 244
ENCODING 244
SWIDTH 648 0
DWIDTH 9 0
BBX 8 11 1 -5
BITMAP
18
24
00
3C
42
81
81
81
81
42
3C
ENDCHAR
STARTCHAR 245
ENCODING 245
SWIDTH 648 0
DWIDTH 9 0
BBX 8 11 1 -5
BITMAP
32
4C
00
3C
42
81
81
81
81
42
3C
ENDCHAR
STARTCHAR 246
ENCODING 246
SWIDTH 648 0
DWIDTH 9 0
BBX 8 11 1 -5
BITMAP
66
66
00
3C
42
81
81
81
81
42
3C
ENDCHAR
STARTCHAR 247
ENCODING 247
SWIDTH 648 0
DWIDTH 9 0
BBX 6 7 2 -4
BITMAP
30
30
00
FC
00
30
30
ENDCHAR
STARTCHAR 248
ENCODING 248
SWIDTH 648 0
DWIDTH 9 0
BBX 8 8 1 -5
BITMAP
3D
42
85
89
91
A1
42
BC
ENDCHAR
STARTCHAR 249
ENCODING 249
SWIDTH 648 0
DWIDTH 9 0
BBX 8 12 1 -5
BITMAP
20
10
08
00
81
81
81
81
81
81
43
3D
ENDCHAR
STARTCHAR 250
ENCODING 250
SWIDTH 648 0
DWIDTH 9 0
BBX 8 12 1 -5
BITMAP
04
08
10
00
81
81
81
81
81
81
43
3D
ENDCHAR
STARTCHAR 251
ENCODING 251
SWIDTH 648 0
DWIDTH 9 0
BBX 8 11 1 -5
BITMAP
18
24
00
81
81
81
81
81
81
43
3D
ENDCHAR
STARTCHAR 252
ENCODING 252
SWIDTH 648 0
DWIDTH 9 0
BBX 8 11 1 -5
BITMAP
66
66
00
81
81
81
81
81
81
43
3D
ENDCHAR
STARTCHAR 253
ENCODING 253
SWIDTH 648 0
DWIDTH 9 0
BBX 8 16 1 -9
BITMAP
04
08
10
00
81
81
81
81
81
81
43
3D
01
01
42
3C
ENDCHAR
STARTCHAR 254
ENCODING 254
SWIDTH 648 0
DWIDTH 9 0
BBX 7 9 1 -5
BITMAP
C0
40
5C
62
42
62
5C
40
40
ENDCHAR
STARTCHAR 255
ENCODING 255
SWIDTH 648 0
DWIDTH 9 0
BBX 8 16 1 -9
BITMAP
66
66
00
00
81
81
81
81
81
81
43
3D
01
01
42
3C
ENDCHAR
ENDFONT
